<svg width="56" height="56" viewBox="0 0 56 56" fill="none" xmlns="http://www.w3.org/2000/svg">
<path d="M53.4671 28C53.4671 42.0846 42.0563 53.5 27.9835 53.5C13.9108 53.5 2.5 42.0846 2.5 28C2.5 13.9154 13.9108 2.5 27.9835 2.5C42.0563 2.5 53.4671 13.9154 53.4671 28Z" stroke="black" stroke-width="5"/>
<path d="M40.9753 25.5C40.9753 29.0118 39.8168 31.5763 37.7201 33.2878C35.5903 35.0263 32.3518 36 27.9835 36C23.6153 36 20.3768 35.0263 18.247 33.2878C16.1503 31.5763 14.9918 29.0118 14.9918 25.5C14.9918 22.0477 16.3568 19.469 18.6022 17.7277C20.8778 15.9631 24.1388 15 27.9835 15C32.2995 15 35.5454 16.1981 37.6965 18.0673C39.8375 19.9277 40.9753 22.5205 40.9753 25.5Z" fill="black" stroke="black" stroke-width="2"/>
<path d="M38.6497 11.851L38.4458 17.9097L33.3038 14.7037L38.6497 11.851Z" fill="black"/>
<path d="M16.9605 11.851L17.1643 17.9097L22.3063 14.7037L16.9605 11.851Z" fill="black"/>
<path d="M29.4598 37.9022C29.6966 37.8841 29.9242 37.8661 30.1153 37.8506C30.1488 37.8932 30.1836 37.9379 30.2191 37.9839C30.4674 38.306 30.6807 38.6089 30.7569 38.7606C30.8212 38.8884 30.8999 39.1546 30.9672 39.4627C30.9977 39.602 31.0213 39.7285 31.0373 39.8199C31.0435 39.8552 31.0484 39.8849 31.0522 39.9077L31.4443 50.8305L24.6971 50.8308L24.6971 39.822C24.6974 39.8185 24.6978 39.8136 24.6984 39.8073C24.7014 39.7775 24.7089 39.7159 24.7275 39.6222C24.7645 39.4352 24.8458 39.1187 25.023 38.6724C25.1371 38.3848 25.3504 38.1463 25.5701 37.9672C25.6227 37.9243 25.6729 37.887 25.7184 37.8554C25.8985 37.8711 26.1373 37.8916 26.3909 37.912C26.8988 37.9529 27.5328 37.9998 27.8324 37.9997C28.1301 37.9997 28.8598 37.948 29.4598 37.9022Z" fill="black" stroke="black" stroke-width="2"/>
<path d="M15.5904 35.505C15.0408 35.4501 14.5508 35.851 14.4958 36.4005C14.4408 36.9501 14.8417 37.4401 15.3913 37.4951L15.5904 35.505ZM23.9091 39.503C22.3647 39.6219 21.5211 39.4599 21.0232 39.2409C20.561 39.0376 20.3004 38.7454 20.0004 38.3087C19.7193 37.8996 19.3145 37.1913 18.6543 36.6392C17.9439 36.0451 16.9906 35.6451 15.5904 35.505L15.3913 37.4951C16.4896 37.605 17.0354 37.8925 17.3713 38.1734C17.7574 38.4963 17.9459 38.8504 18.352 39.4413C18.739 40.0046 19.2593 40.65 20.218 41.0716C21.1412 41.4777 22.3589 41.6282 24.0626 41.4971L23.9091 39.503Z" fill="black"/>
</svg>
