<svg width="50" height="49" viewBox="0 0 50 49" fill="none" xmlns="http://www.w3.org/2000/svg">
<path d="M3.44885 15C3.44885 8.09643 9.04529 2.5 15.9489 2.5H34.4724C41.3759 2.5 46.9724 8.09644 46.9724 15V34.0941C46.9724 40.8306 41.6513 46.3211 34.9784 46.4319C31.5089 46.4896 27.9161 46.5197 24.8046 46.4857C21.9349 46.4544 18.7385 46.4051 15.6417 46.3508C8.86818 46.2319 3.44885 40.6924 3.44885 33.8994V15Z" stroke="black" stroke-width="5"/>
<path d="M35.7079 24.276C35.7079 30.0792 31.0067 34.781 25.2106 34.781C19.4144 34.781 14.7132 30.0792 14.7132 24.276C14.7132 18.4729 19.4144 13.771 25.2106 13.771C31.0067 13.771 35.7079 18.4729 35.7079 24.276Z" stroke="black" stroke-width="5"/>
<ellipse cx="38.208" cy="12.1381" rx="2.59947" ry="2.601" fill="black"/>
</svg>
