<svg width="439" height="416" viewBox="0 0 439 416" fill="none" xmlns="http://www.w3.org/2000/svg">
<path d="M175.373 269.574C174.917 269.939 174.644 270.417 174.553 271.01C174.462 271.557 174.348 272.104 174.211 272.65C174.074 273.197 173.824 273.676 173.459 274.086C173.14 274.451 172.548 274.61 171.682 274.564C171.499 274.792 171.454 274.929 171.545 274.975C171.682 275.02 171.796 275.225 171.887 275.59C171.249 275.499 170.793 275.544 170.52 275.727C170.246 275.909 169.904 276.046 169.494 276.137C168.446 275.818 167.557 275.248 166.828 274.428C166.145 273.562 165.529 272.628 164.982 271.625C164.481 270.622 164.025 269.597 163.615 268.549C163.251 267.501 162.863 266.589 162.453 265.814C162.453 265.632 162.544 265.564 162.727 265.609C162.863 265.609 163 265.609 163.137 265.609C162.909 265.154 162.749 264.652 162.658 264.105C162.521 263.513 162.294 263.035 161.975 262.67C163.296 259.844 164.709 256.905 166.213 253.852C167.717 250.753 169.221 247.631 170.725 244.486C172.274 241.296 173.801 238.106 175.305 234.916C176.854 231.68 178.335 228.513 179.748 225.414C181.024 225.87 182.255 226.417 183.439 227.055C184.67 227.647 185.786 228.354 186.789 229.174C187.792 229.994 188.635 230.951 189.318 232.045C190.048 233.093 190.526 234.301 190.754 235.668C190.663 235.941 190.549 236.033 190.412 235.941C190.275 235.85 190.161 235.896 190.07 236.078C190.298 236.352 190.412 236.557 190.412 236.693C190.458 236.785 190.458 236.898 190.412 237.035C190.367 237.126 190.344 237.263 190.344 237.445C190.344 237.628 190.458 237.878 190.686 238.197C190.458 238.152 190.298 238.197 190.207 238.334C190.116 238.425 189.956 238.425 189.729 238.334C189.956 238.972 190.025 239.473 189.934 239.838C189.842 240.202 189.706 240.544 189.523 240.863C189.341 241.137 189.182 241.456 189.045 241.82C188.954 242.139 188.999 242.595 189.182 243.188C188.999 243.188 188.863 243.233 188.771 243.324C188.726 243.37 188.68 243.438 188.635 243.529C188.589 243.62 188.521 243.712 188.43 243.803C188.384 243.848 188.27 243.848 188.088 243.803C188.225 244.988 188.27 246.195 188.225 247.426C188.179 248.611 188.133 249.841 188.088 251.117C188.042 252.348 188.042 253.624 188.088 254.945C188.133 256.267 188.316 257.634 188.635 259.047C190.594 257.908 192.167 256.426 193.352 254.604C194.582 252.781 195.539 250.753 196.223 248.52C196.952 246.286 197.499 243.894 197.863 241.342C198.273 238.79 198.684 236.192 199.094 233.549C199.595 233.048 199.982 232.432 200.256 231.703C200.575 230.974 200.826 230.222 201.008 229.447C201.236 228.673 201.441 227.898 201.623 227.123C201.851 226.303 202.147 225.574 202.512 224.936C203.332 225.027 204.016 225.277 204.562 225.688C205.155 226.052 205.702 226.485 206.203 226.986C206.704 227.442 207.229 227.875 207.775 228.285C208.322 228.695 209.006 228.969 209.826 229.105C210.464 230.017 211.057 230.906 211.604 231.771C212.15 232.592 212.515 233.526 212.697 234.574C212.424 235.03 212.219 235.531 212.082 236.078C211.945 236.625 211.786 237.172 211.604 237.719C211.467 238.266 211.262 238.767 210.988 239.223C210.715 239.678 210.327 240.066 209.826 240.385C209.689 241.752 209.484 243.028 209.211 244.213C208.938 245.398 208.687 246.56 208.459 247.699C208.231 248.839 208.026 250.023 207.844 251.254C207.661 252.484 207.593 253.829 207.639 255.287C207.229 256.609 206.773 257.976 206.271 259.389C205.77 260.756 205.406 262.032 205.178 263.217C204.312 263.9 203.628 264.743 203.127 265.746C202.626 266.749 202.102 267.751 201.555 268.754C201.327 268.936 201.19 268.982 201.145 268.891C201.099 268.754 200.894 268.663 200.529 268.617C200.575 269.027 200.484 269.301 200.256 269.438C200.074 269.529 200.096 269.848 200.324 270.395C199.549 270.759 198.866 271.238 198.273 271.83C197.681 272.423 197.02 272.969 196.291 273.471C195.607 273.972 194.787 274.314 193.83 274.496C192.919 274.633 191.711 274.428 190.207 273.881C187.974 272.24 185.969 270.349 184.191 268.207C182.414 266.065 181.001 263.536 179.953 260.619C179.497 260.756 179.156 261.052 178.928 261.508C178.7 261.964 178.495 262.442 178.312 262.943C178.13 263.445 177.948 263.9 177.766 264.311C177.583 264.721 177.31 264.926 176.945 264.926C176.854 265.336 176.672 265.723 176.398 266.088C176.171 266.407 175.943 266.749 175.715 267.113C175.487 267.432 175.305 267.797 175.168 268.207C175.077 268.617 175.145 269.073 175.373 269.574ZM247.082 270.258C246.809 271.033 246.398 271.83 245.852 272.65C245.35 273.425 244.735 274.132 244.006 274.77C243.322 275.362 242.548 275.863 241.682 276.273C240.816 276.684 239.904 276.911 238.947 276.957C238.355 276.82 237.945 276.661 237.717 276.479C237.535 276.342 237.329 276.205 237.102 276.068C236.965 275.977 236.828 275.909 236.691 275.863C236.6 275.772 236.509 275.704 236.418 275.658L235.598 275.316L235.871 274.428C235.962 274.063 235.939 273.79 235.803 273.607C235.666 273.38 235.393 273.083 234.982 272.719C234.846 272.582 234.709 272.445 234.572 272.309C234.436 272.172 234.322 272.035 234.23 271.898L233.068 270.6L234.914 270.121C236.053 269.802 236.805 269.392 237.17 268.891C237.58 268.389 237.74 267.546 237.648 266.361C236.737 266.179 235.962 266.156 235.324 266.293C234.732 266.43 234.117 266.589 233.479 266.771C232.658 266.999 231.815 267.204 230.949 267.387C230.129 267.523 229.217 267.592 228.215 267.592C227.85 267.592 227.508 267.592 227.189 267.592C226.87 267.546 226.529 267.501 226.164 267.455L225.48 267.318C225.389 266.817 225.298 266.544 225.207 266.498C225.116 266.407 225.025 266.316 224.934 266.225C224.706 265.997 224.455 265.701 224.182 265.336C223.954 264.926 223.908 264.424 224.045 263.832C223.817 263.422 223.68 263.012 223.635 262.602C223.361 263.148 223.156 263.718 223.02 264.311L222.746 264.994L222.062 265.131C221.971 265.176 221.903 265.29 221.857 265.473C221.812 265.609 221.789 265.723 221.789 265.814L221.447 266.977C221.356 267.068 221.265 267.159 221.174 267.25C221.083 267.296 220.992 267.364 220.9 267.455C220.809 267.865 220.695 268.275 220.559 268.686C220.422 269.096 220.285 269.483 220.148 269.848C219.921 270.44 219.715 271.033 219.533 271.625C219.396 272.172 219.351 272.719 219.396 273.266L219.123 274.018C218.895 274.291 218.645 274.519 218.371 274.701C218.098 274.838 217.824 274.975 217.551 275.111C217.46 275.202 217.323 275.294 217.141 275.385C217.004 275.43 216.89 275.476 216.799 275.521L216.594 276.273L215.773 276.41C215.272 276.501 214.908 276.57 214.68 276.615C214.497 276.661 214.27 276.684 213.996 276.684L213.312 276.615C212.811 276.205 212.424 275.886 212.15 275.658C211.877 275.385 211.558 275.134 211.193 274.906C210.783 274.359 210.555 273.949 210.51 273.676C210.464 273.402 210.419 273.152 210.373 272.924C210.282 272.65 210.236 272.423 210.236 272.24C210.191 272.058 210.122 271.921 210.031 271.83L209.143 271.01L209.895 270.395L209.963 269.232C210.874 266.908 211.831 264.675 212.834 262.533C213.882 260.391 214.953 258.204 216.047 255.971C216.411 255.242 216.753 254.512 217.072 253.783C217.437 253.054 217.801 252.325 218.166 251.596C218.12 251.459 218.098 251.299 218.098 251.117C218.098 250.935 218.143 250.73 218.234 250.502C218.736 249.727 219.146 249.044 219.465 248.451C219.784 247.813 220.103 247.175 220.422 246.537C220.786 245.762 221.151 245.01 221.516 244.281C221.926 243.552 222.427 242.8 223.02 242.025L224.113 241.547C224.25 241.501 224.41 241.456 224.592 241.41C224.774 241.319 224.979 241.273 225.207 241.273L226.232 241.41C227.508 240.818 228.625 239.997 229.582 238.949C230.539 237.855 231.519 236.557 232.521 235.053L233.205 234.096L234.094 234.643C234.322 234.779 234.641 234.916 235.051 235.053C235.461 235.144 235.894 235.258 236.35 235.395C237.17 235.577 237.945 235.782 238.674 236.01C239.403 236.238 239.995 236.579 240.451 237.035C240.725 237.764 240.884 238.311 240.93 238.676C240.975 239.04 241.044 239.405 241.135 239.77C241.271 240.544 241.385 241.319 241.477 242.094C241.613 242.868 241.704 243.734 241.75 244.691C241.978 245.466 242.16 246.241 242.297 247.016C242.479 247.745 242.639 248.497 242.775 249.271C243.003 250.365 243.231 251.436 243.459 252.484C243.687 253.487 243.983 254.444 244.348 255.355C244.712 255.355 244.94 255.378 245.031 255.424C245.259 255.333 245.487 255.264 245.715 255.219C245.988 255.173 246.285 255.128 246.604 255.082L247.355 255.014L247.629 255.697C247.674 255.925 247.902 256.153 248.312 256.381C248.905 256.426 249.338 256.563 249.611 256.791C249.885 256.973 250.135 257.178 250.363 257.406C250.546 257.589 250.728 257.725 250.91 257.816L251.936 258.227L251.389 259.252C250.933 260.072 250.272 260.87 249.406 261.645C248.586 262.374 247.652 262.989 246.604 263.49C246.649 263.764 246.672 264.037 246.672 264.311C246.717 264.538 246.786 264.789 246.877 265.062C247.014 265.837 247.128 266.635 247.219 267.455C247.31 268.275 247.31 269.118 247.219 269.984L247.082 270.258ZM227.326 258.432C228.693 258.34 229.924 258.249 231.018 258.158C232.157 258.021 233.41 257.816 234.777 257.543C234.458 256.176 234.117 254.763 233.752 253.305C233.387 251.801 233 250.32 232.59 248.861L232.18 249.545C231.268 250.502 230.38 251.573 229.514 252.758C228.693 253.943 227.987 255.059 227.395 256.107C227.121 256.518 226.848 256.928 226.574 257.338C226.301 257.748 226.05 258.158 225.822 258.568C226.096 258.523 226.346 258.5 226.574 258.5C226.848 258.5 227.098 258.477 227.326 258.432ZM252.619 217.553C253.394 217.598 253.986 217.803 254.396 218.168C254.852 218.533 255.08 219.034 255.08 219.672C254.989 220.219 254.829 220.674 254.602 221.039C254.283 221.768 253.986 222.338 253.713 222.748C253.485 223.113 253.234 223.5 252.961 223.91C252.551 224.548 252.141 225.163 251.73 225.756C251.366 226.348 250.933 226.964 250.432 227.602C250.113 227.875 249.862 228.057 249.68 228.148C249.27 228.513 248.837 228.855 248.381 229.174C247.925 229.447 247.447 229.698 246.945 229.926C246.125 230.245 245.35 230.45 244.621 230.541C243.938 230.587 243.186 230.609 242.365 230.609H241.408C240.907 230.564 240.383 230.518 239.836 230.473C239.335 230.427 238.902 230.359 238.537 230.268C237.854 229.903 237.307 229.584 236.896 229.311C236.532 229.037 236.167 228.764 235.803 228.49C235.393 228.217 235.051 227.921 234.777 227.602C234.504 227.283 234.253 226.964 234.025 226.645C233.843 226.371 233.615 226.12 233.342 225.893C233.114 225.619 232.886 225.482 232.658 225.482C232.43 225.528 232.202 225.665 231.975 225.893C231.792 226.12 231.587 226.348 231.359 226.576C231.268 226.667 231.177 226.781 231.086 226.918C230.995 227.009 230.904 227.1 230.812 227.191C230.539 228.057 229.992 228.764 229.172 229.311C228.762 229.538 228.443 229.675 228.215 229.721C227.987 229.766 227.782 229.835 227.6 229.926L226.916 230.062L226.232 230.199L225.549 230.131C224.865 230.359 224.296 230.473 223.84 230.473C222.928 230.427 222.245 230.222 221.789 229.857C221.379 229.447 221.174 228.946 221.174 228.354C221.265 227.807 221.424 227.351 221.652 226.986C222.017 226.257 222.313 225.688 222.541 225.277C222.814 224.867 223.088 224.457 223.361 224.047C223.726 223.454 224.09 222.862 224.455 222.27C224.865 221.677 225.321 221.062 225.822 220.424C226.141 220.15 226.392 219.968 226.574 219.877C226.984 219.512 227.417 219.193 227.873 218.92C228.329 218.601 228.807 218.327 229.309 218.1C230.129 217.781 230.881 217.598 231.564 217.553C232.294 217.462 233.068 217.416 233.889 217.416H234.846C235.894 217.507 236.851 217.621 237.717 217.758C238.4 218.122 238.924 218.441 239.289 218.715C239.699 218.988 240.087 219.262 240.451 219.535C240.861 219.809 241.203 220.105 241.477 220.424C241.75 220.743 242.001 221.062 242.229 221.381C242.775 222.156 243.254 222.52 243.664 222.475C243.892 222.475 244.097 222.383 244.279 222.201C244.462 221.973 244.667 221.723 244.895 221.449C244.986 221.312 245.168 221.107 245.441 220.834C245.715 219.968 246.262 219.262 247.082 218.715C247.72 218.396 248.244 218.191 248.654 218.1L249.338 217.963L250.021 217.826H250.705C251.252 217.644 251.822 217.553 252.414 217.553H252.619ZM291.447 255.492C291.402 256.039 291.447 256.563 291.584 257.064C291.721 257.566 291.88 258.067 292.062 258.568C292.29 259.024 292.495 259.503 292.678 260.004C292.86 260.505 292.997 261.007 293.088 261.508C293.179 262.146 293.179 262.852 293.088 263.627C292.997 264.356 292.837 265.085 292.609 265.814C292.382 266.498 292.085 267.136 291.721 267.729C291.356 268.275 290.923 268.686 290.422 268.959C289.784 269.779 289.009 270.417 288.098 270.873C287.186 271.329 286.343 271.876 285.568 272.514C285.067 272.833 284.497 273.061 283.859 273.197C283.267 273.334 282.652 273.471 282.014 273.607C281.512 273.881 280.92 274.177 280.236 274.496C279.553 274.77 278.846 275.043 278.117 275.316C277.388 275.544 276.659 275.727 275.93 275.863C275.201 275.954 274.562 275.977 274.016 275.932C272.648 276.433 271.304 276.752 269.982 276.889C268.706 277.071 267.202 276.98 265.471 276.615C263.83 276.843 262.303 276.775 260.891 276.41C259.523 276.046 258.293 275.476 257.199 274.701C256.151 273.881 255.217 272.924 254.396 271.83C253.622 270.691 252.984 269.506 252.482 268.275C252.118 265.678 252.209 263.331 252.756 261.234C253.303 259.092 254.077 257.133 255.08 255.355C256.128 253.533 257.313 251.869 258.635 250.365C259.956 248.816 261.232 247.312 262.463 245.854C262.736 245.945 262.941 245.945 263.078 245.854C263.26 245.717 263.42 245.557 263.557 245.375C263.693 245.147 263.83 244.942 263.967 244.76C264.149 244.577 264.354 244.464 264.582 244.418C264.901 243.734 265.357 243.233 265.949 242.914C266.587 242.549 267.089 242.048 267.453 241.41C267.863 241.319 268.205 241.182 268.479 241C268.752 240.818 269.003 240.613 269.23 240.385C269.504 240.157 269.777 239.952 270.051 239.77C270.324 239.542 270.643 239.382 271.008 239.291V238.539C271.828 238.174 272.421 237.764 272.785 237.309C273.195 236.807 273.674 236.215 274.221 235.531C274.631 235.486 274.95 235.463 275.178 235.463C275.451 235.463 275.839 235.417 276.34 235.326C276.704 234.688 277.023 234.21 277.297 233.891C277.616 233.572 278.072 233.23 278.664 232.865C279.211 233.139 279.803 233.321 280.441 233.412C281.125 233.503 281.717 233.799 282.219 234.301C282.264 234.757 282.401 235.121 282.629 235.395C282.857 235.622 283.107 235.85 283.381 236.078C283.654 236.26 283.905 236.465 284.133 236.693C284.406 236.921 284.589 237.24 284.68 237.65C284.862 237.696 284.976 237.673 285.021 237.582C285.113 237.491 285.249 237.468 285.432 237.514C285.568 238.152 285.728 238.585 285.91 238.812C286.092 238.995 286.275 239.382 286.457 239.975C286.229 240.43 286.047 240.909 285.91 241.41C285.819 241.866 285.546 242.208 285.09 242.436C285.044 242.755 285.135 242.937 285.363 242.982C285.591 242.982 285.728 243.096 285.773 243.324C285.819 243.734 285.751 244.031 285.568 244.213C286.662 245.99 287.642 247.882 288.508 249.887C289.374 251.846 290.354 253.715 291.447 255.492ZM282.902 261.986C283.085 261.485 283.312 261.075 283.586 260.756C283.905 260.437 284.087 259.958 284.133 259.32C283.905 258.956 283.768 258.682 283.723 258.5C283.677 258.272 283.654 257.93 283.654 257.475C282.652 256.062 281.786 254.558 281.057 252.963C280.327 251.322 279.507 249.796 278.596 248.383C278.505 248.565 278.345 248.747 278.117 248.93C277.889 249.112 277.639 249.066 277.365 248.793C277.274 249.158 277.115 249.431 276.887 249.613C276.659 249.75 276.408 249.818 276.135 249.818C275.861 249.773 275.565 249.704 275.246 249.613C274.973 249.477 274.722 249.317 274.494 249.135C273.173 250.183 271.851 251.208 270.529 252.211C269.208 253.214 268.023 254.376 266.975 255.697C266.792 255.788 266.678 255.834 266.633 255.834C266.587 255.788 266.451 255.811 266.223 255.902C265.858 256.768 265.402 257.566 264.855 258.295C264.354 258.979 263.853 259.685 263.352 260.414C262.85 261.143 262.417 261.918 262.053 262.738C261.688 263.559 261.483 264.516 261.438 265.609C262.212 266.247 263.124 266.635 264.172 266.771C265.22 266.908 266.291 266.931 267.385 266.84C268.524 266.749 269.618 266.612 270.666 266.43C271.76 266.202 272.762 266.088 273.674 266.088C275.588 265.632 277.229 265.04 278.596 264.311C279.963 263.536 281.398 262.761 282.902 261.986ZM336.906 228.9C337.225 229.265 337.499 229.652 337.727 230.062C337.954 230.427 338.296 230.701 338.752 230.883C338.524 232.022 338.456 233.116 338.547 234.164C338.638 235.167 338.706 236.26 338.752 237.445C338.114 240.909 336.701 243.689 334.514 245.785C332.326 247.836 329.797 249.249 326.926 250.023C326.926 250.479 326.789 250.798 326.516 250.98C325.604 251.117 324.921 251.345 324.465 251.664C324.009 251.983 323.576 252.325 323.166 252.689C322.801 253.054 322.346 253.419 321.799 253.783C321.298 254.102 320.5 254.353 319.406 254.535C319.178 255.036 318.859 255.355 318.449 255.492C318.085 255.629 317.697 255.743 317.287 255.834C316.923 255.88 316.558 255.993 316.193 256.176C315.829 256.312 315.555 256.677 315.373 257.27L311.477 260.893C310.383 260.619 309.426 260.505 308.605 260.551C307.785 260.551 307.102 260.505 306.555 260.414C306.008 260.323 305.575 260.049 305.256 259.594C304.982 259.138 304.8 258.272 304.709 256.996C304.755 256.54 304.914 256.244 305.188 256.107C305.507 255.925 305.712 255.652 305.803 255.287C305.803 254.285 305.939 253.555 306.213 253.1C306.532 252.598 306.919 252.188 307.375 251.869C307.831 251.55 308.309 251.208 308.811 250.844C309.312 250.434 309.745 249.818 310.109 248.998C310.839 248.679 311.636 248.178 312.502 247.494C313.413 246.765 314.234 246.059 314.963 245.375C316.102 244.783 317.059 244.258 317.834 243.803C318.654 243.347 319.406 242.891 320.09 242.436C320.773 241.98 321.457 241.479 322.141 240.932C322.824 240.385 323.645 239.701 324.602 238.881C324.374 238.288 323.941 237.969 323.303 237.924C322.71 237.833 322.027 237.833 321.252 237.924C319.93 237.514 318.632 237.263 317.355 237.172C316.125 237.035 314.667 236.921 312.98 236.83C312.342 236.876 311.864 236.944 311.545 237.035C311.271 237.081 310.839 237.058 310.246 236.967C309.973 237.195 309.654 237.377 309.289 237.514C308.97 237.65 308.605 237.787 308.195 237.924C307.831 238.015 307.443 238.129 307.033 238.266C306.669 238.357 306.327 238.493 306.008 238.676C305.096 238.448 304.367 238.015 303.82 237.377C303.273 236.739 302.613 236.238 301.838 235.873C301.747 235.554 301.815 235.349 302.043 235.258C302.271 235.167 302.339 234.893 302.248 234.438C301.792 234.21 301.564 234.027 301.564 233.891C301.61 233.754 301.473 233.572 301.154 233.344C301.337 232.615 301.587 231.999 301.906 231.498C302.271 230.951 302.658 230.45 303.068 229.994C303.479 229.493 303.889 229.014 304.299 228.559C304.709 228.103 305.074 227.579 305.393 226.986C306.122 226.804 306.737 226.531 307.238 226.166C307.785 225.756 308.309 225.323 308.811 224.867C311.271 224.594 313.664 224.525 315.988 224.662C318.312 224.753 320.614 224.981 322.893 225.346C325.217 225.71 327.518 226.212 329.797 226.85C332.121 227.488 334.491 228.171 336.906 228.9ZM310.656 268.207C310.565 268.891 310.474 269.392 310.383 269.711C310.337 270.03 310.314 270.326 310.314 270.6C310.314 270.873 310.337 271.215 310.383 271.625C310.474 272.035 310.611 272.673 310.793 273.539L310.998 274.633L310.041 274.838C309.813 274.883 309.426 275.089 308.879 275.453C308.378 275.818 307.922 276.114 307.512 276.342C306.874 276.706 306.258 277.094 305.666 277.504C305.119 277.96 304.549 278.188 303.957 278.188C303.273 277.823 302.795 277.549 302.521 277.367C302.248 277.185 301.975 277.003 301.701 276.82C301.473 276.41 301.268 276 301.086 275.59C300.904 275.18 300.699 274.77 300.471 274.359C300.334 274.04 300.243 273.835 300.197 273.744C300.152 273.653 300.106 273.585 300.061 273.539C300.061 273.493 300.015 273.471 299.924 273.471C299.878 273.425 299.742 273.288 299.514 273.061L299.104 272.24C299.058 271.876 299.081 271.534 299.172 271.215C299.309 270.85 299.423 270.508 299.514 270.189C299.559 270.053 299.605 269.893 299.65 269.711C299.742 269.483 299.787 269.324 299.787 269.232L299.377 268.549L299.924 267.797C300.197 267.296 300.402 266.954 300.539 266.771C300.676 266.589 300.858 266.384 301.086 266.156L301.701 265.678C302.932 265.632 303.934 265.518 304.709 265.336C305.484 265.473 305.985 265.632 306.213 265.814C306.441 265.951 306.669 266.111 306.896 266.293C307.398 266.658 307.762 266.84 307.99 266.84H309.357L309.221 267.865L310.656 268.207Z" fill="#00BEC1"/>
<path d="M63.9733 287L61.9733 287L61.9733 289L63.9733 289L63.9733 287ZM437.914 288.414C438.695 287.633 438.695 286.367 437.914 285.586L425.186 272.858C424.405 272.077 423.139 272.077 422.358 272.858C421.577 273.639 421.577 274.905 422.358 275.686L433.672 287L422.358 298.314C421.577 299.095 421.577 300.361 422.358 301.142C423.139 301.923 424.405 301.923 425.186 301.142L437.914 288.414ZM61.9733 104.406L61.9733 287L65.9733 287L65.9733 104.406L61.9733 104.406ZM63.9733 289L436.5 289L436.5 285L63.9733 285L63.9733 289Z" fill="#00BEC1"/>
</svg>
