<svg width="196" height="101" viewBox="0 0 196 101" fill="none" xmlns="http://www.w3.org/2000/svg">
<path d="M24.0625 46.1172C24.3724 45.1875 24.8594 44.3906 25.5234 43.7266C26.2318 43.0625 26.9844 42.5091 27.7812 42.0664C28.6224 41.5794 29.4857 41.181 30.3711 40.8711C31.2565 40.5612 32.0977 40.2956 32.8945 40.0742C34.6654 39.3216 36.5469 38.6133 38.5391 37.9492C40.5755 37.2409 42.6341 36.6211 44.7148 36.0898C46.8398 35.5586 49.0091 35.2266 51.2227 35.0938C53.4362 34.9167 55.7604 35.1823 58.1953 35.8906C58.3281 36.3333 58.5273 36.7539 58.793 37.1523C59.0586 37.5508 59.3242 37.9492 59.5898 38.3477C59.8997 38.7461 60.1654 39.1445 60.3867 39.543C60.6081 39.8971 60.7409 40.2734 60.7852 40.6719C61.2279 41.0703 61.582 41.513 61.8477 42C62.1133 42.4427 62.1576 43.0404 61.9805 43.793C61.5378 44.1471 61.0951 44.4792 60.6523 44.7891C60.2539 45.0547 59.8112 45.2982 59.3242 45.5195C57.6862 45.1211 56.026 44.9883 54.3438 45.1211C52.6615 45.2539 51.1562 45.3646 49.8281 45.4531C49.4297 45.0547 48.9427 44.8555 48.3672 44.8555C47.8359 44.8555 47.2604 44.944 46.6406 45.1211C46.0651 45.2982 45.4674 45.4753 44.8477 45.6523C44.2721 45.8294 43.7188 45.8737 43.1875 45.7852C42.7448 46.1393 42.1914 46.3828 41.5273 46.5156C40.9076 46.6042 40.2214 46.6927 39.4688 46.7812C39.4245 47.0026 39.4688 47.1576 39.6016 47.2461C39.7344 47.2904 39.7565 47.4232 39.668 47.6445C39.9336 47.9544 40.2656 48.1758 40.6641 48.3086C41.1068 48.4414 41.5495 48.5742 41.9922 48.707C42.4792 48.8398 42.8997 49.0169 43.2539 49.2383C43.6081 49.4154 43.8516 49.7253 43.9844 50.168C44.6484 50.168 45.224 50.3229 45.7109 50.6328C46.1979 50.9427 46.5964 51.319 46.9062 51.7617C47.2161 52.2044 47.4375 52.6914 47.5703 53.2227C47.7474 53.7096 47.8359 54.1523 47.8359 54.5508C47.9688 54.9049 48.1237 55.0599 48.3008 55.0156C48.4779 54.9714 48.6771 55.0599 48.8984 55.2812C49.0312 55.8568 49.3633 56.4544 49.8945 57.0742C50.4258 57.6497 50.8464 58.2917 51.1562 59C51.2448 60.1068 51.3112 61.1029 51.3555 61.9883C51.3997 62.8294 51.2448 63.6927 50.8906 64.5781C50.2266 66.2161 49.2969 67.6771 48.1016 68.9609C46.9505 70.2448 45.6224 71.3958 44.1172 72.4141C42.6562 73.388 41.0846 74.2292 39.4023 74.9375C37.7201 75.6458 36.082 76.2435 34.4883 76.7305C34.3112 76.6862 34.1341 76.6862 33.957 76.7305C33.7799 76.7747 33.7357 76.6641 33.8242 76.3984C33.4701 76.7083 33.0716 76.9076 32.6289 76.9961C32.2305 77.0846 31.7878 77.1068 31.3008 77.0625C30.8138 77.0625 30.3047 77.0404 29.7734 76.9961C29.2865 76.9518 28.8216 76.974 28.3789 77.0625C28.069 76.7526 27.7812 76.4427 27.5156 76.1328C27.2943 75.8672 27.1172 75.513 26.9844 75.0703C26.763 75.0703 26.6523 74.9596 26.6523 74.7383C26.6966 74.5169 26.6302 74.4062 26.4531 74.4062C26.7188 73.9635 26.8294 73.7201 26.7852 73.6758C26.7852 73.5872 26.7188 73.5208 26.5859 73.4766C26.4974 73.4323 26.4089 73.388 26.3203 73.3438C26.2318 73.2552 26.2096 73.1445 26.2539 73.0117C26.431 72.6576 26.4974 72.2591 26.4531 71.8164C26.4089 71.3294 26.3646 70.8424 26.3203 70.3555C26.276 69.8685 26.2982 69.4036 26.3867 68.9609C26.5195 68.5182 26.8516 68.1641 27.3828 67.8984C28.888 68.0755 30.3047 68.0312 31.6328 67.7656C33.0052 67.4557 34.2891 67.0352 35.4844 66.5039C36.6797 65.9727 37.8086 65.3971 38.8711 64.7773C39.9779 64.1576 41.0625 63.6042 42.125 63.1172C42.2578 62.7188 42.4349 62.3867 42.6562 62.1211C42.9219 61.8555 43.1875 61.612 43.4531 61.3906C43.7188 61.1693 43.9622 60.9258 44.1836 60.6602C44.4049 60.3945 44.5599 60.0625 44.6484 59.6641C44.6927 59.3542 44.6042 59.1771 44.3828 59.1328C44.2057 59.0443 44.1172 58.8672 44.1172 58.6016L43.3867 58.4023C42.5456 57.9154 41.5938 57.5169 40.5312 57.207C39.4688 56.8529 38.5612 56.4766 37.8086 56.0781C37.3216 56.3438 36.8568 56.4102 36.4141 56.2773C36.0156 56.1445 35.4844 56.0117 34.8203 55.8789C33.3151 55.7904 31.8542 55.6354 30.4375 55.4141C29.0651 55.1927 27.737 54.7943 26.4531 54.2188C26.3646 53.9974 26.2539 53.7982 26.1211 53.6211C25.9883 53.444 25.7448 53.3997 25.3906 53.4883C25.125 53.1341 24.8594 52.8021 24.5938 52.4922C24.3281 52.138 24.0846 51.7617 23.8633 51.3633C23.9518 50.832 24.0182 50.3893 24.0625 50.0352C24.1068 49.6367 23.974 49.2604 23.6641 48.9062C23.8411 48.3307 23.974 47.8659 24.0625 47.5117C24.151 47.1576 24.151 46.6927 24.0625 46.1172ZM68.6211 71.3516C68.8424 72.6797 68.7539 73.7201 68.3555 74.4727C68.0013 75.2253 67.4701 75.7786 66.7617 76.1328C66.0977 76.5312 65.3229 76.7526 64.4375 76.7969C63.5521 76.8411 62.7109 76.7969 61.9141 76.6641C61.4714 76.0443 61.0729 75.2695 60.7188 74.3398C60.3646 73.4102 60.0326 72.4583 59.7227 71.4844C59.4128 70.4661 59.125 69.4701 58.8594 68.4961C58.638 67.5221 58.4388 66.6589 58.2617 65.9062C58.4831 65.375 58.6159 64.7773 58.6602 64.1133C58.7487 63.4049 58.793 62.6966 58.793 61.9883C58.8372 61.2799 58.8594 60.5716 58.8594 59.8633C58.9036 59.1107 58.9701 58.4023 59.0586 57.7383C59.3685 55.8789 59.8112 54.1081 60.3867 52.4258C61.0065 50.7435 61.4935 48.9948 61.8477 47.1797C61.9362 46.7812 61.8919 46.4049 61.7148 46.0508C61.582 45.6966 61.5599 45.3646 61.6484 45.0547C61.6927 44.8776 61.8255 44.7669 62.0469 44.7227C62.2682 44.6341 62.401 44.4792 62.4453 44.2578C62.5781 43.7708 62.6003 43.3724 62.5117 43.0625C62.4674 42.7526 62.556 42.3763 62.7773 41.9336C62.9987 41.5794 63.2643 41.0703 63.5742 40.4062C63.9284 39.6979 64.0612 38.9674 63.9727 38.2148C64.3711 37.9492 64.7474 37.6393 65.1016 37.2852C65.4557 36.931 65.8099 36.6211 66.1641 36.3555C66.5625 36.0456 66.9831 35.7799 67.4258 35.5586C67.9128 35.3372 68.4883 35.2266 69.1523 35.2266C69.5065 35.6693 69.7279 36.1562 69.8164 36.6875C69.9492 37.2188 70.0599 37.75 70.1484 38.2812C70.2812 38.8125 70.4583 39.3216 70.6797 39.8086C70.901 40.2513 71.2773 40.6055 71.8086 40.8711C71.8086 41.2253 71.8086 41.668 71.8086 42.1992C71.8086 42.7305 71.8307 43.2617 71.875 43.793C71.9193 44.2799 72.0078 44.7448 72.1406 45.1875C72.3177 45.5859 72.5833 45.8516 72.9375 45.9844C72.1406 48.1094 71.388 50.2122 70.6797 52.293C70.0156 54.3737 69.4622 56.4766 69.0195 58.6016C68.5768 60.6823 68.2891 62.7852 68.1562 64.9102C68.0677 67.0352 68.2227 69.1823 68.6211 71.3516ZM122.277 74.8047C121.835 75.026 121.414 75.2253 121.016 75.4023C120.661 75.5794 120.241 75.668 119.754 75.668C118.027 74.3841 117.12 72.1484 117.031 68.9609C116.987 65.7734 117.673 61.7227 119.09 56.8086C119.311 56.6758 119.422 56.4102 119.422 56.0117L118.824 55.3477C118.647 55.3477 118.47 55.3698 118.293 55.4141C118.16 55.4583 118.049 55.6133 117.961 55.8789C116.81 56.7201 115.548 57.6055 114.176 58.5352C112.803 59.4206 111.365 60.2617 109.859 61.0586C108.398 61.8112 106.893 62.431 105.344 62.918C103.839 63.4049 102.355 63.6484 100.895 63.6484C97.1758 63.6484 94.3867 61.7669 92.5273 58.0039L91.9961 57.0078L91.4648 57.8711C91.332 58.0482 91.1328 58.4245 90.8672 59C90.6016 59.5312 90.3359 60.151 90.0703 60.8594C89.8047 61.5677 89.5612 62.2982 89.3398 63.0508C89.1628 63.7591 89.0964 64.3789 89.1406 64.9102C88.7422 65.3086 88.3216 65.7734 87.8789 66.3047C87.4362 66.8359 87.1042 67.4336 86.8828 68.0977C86.7943 68.4518 86.8385 68.7839 87.0156 69.0938C86.9271 69.4922 86.7279 69.8021 86.418 70.0234C86.2409 70.2448 86.0417 70.4661 85.8203 70.6875C85.6432 70.8646 85.4883 71.0638 85.3555 71.2852C85.2669 71.5065 85.2005 71.7279 85.1562 71.9492C85.1562 72.1706 85.1341 72.3919 85.0898 72.6133C85.0898 72.9232 85.0456 73.2109 84.957 73.4766C84.2044 75.026 83.6068 76.0221 83.1641 76.4648C82.7214 76.9518 82.1237 77.1953 81.3711 77.1953C81.0169 77.1953 80.4414 77.1289 79.6445 76.9961C79.069 76.3763 78.5378 75.5352 78.0508 74.4727C77.6081 73.3659 77.2539 72.1927 76.9883 70.9531C76.7669 69.7135 76.6562 68.474 76.6562 67.2344C76.7005 65.9505 76.9219 64.8438 77.3203 63.9141C77.3203 63.8698 77.4974 63.4271 77.8516 62.5859C78.2057 61.7448 78.6484 60.6602 79.1797 59.332C79.7552 58.0039 80.3971 56.543 81.1055 54.9492C81.8138 53.3112 82.5221 51.7396 83.2305 50.2344C83.9388 48.6849 84.6029 47.2682 85.2227 45.9844C85.8867 44.7005 86.4401 43.7266 86.8828 43.0625C87.237 42.5312 87.5469 42.0443 87.8125 41.6016C88.1224 41.1146 88.4102 40.6497 88.6758 40.207C89.4727 38.8346 90.2253 37.7057 90.9336 36.8203C91.6862 35.8906 92.7708 35.1602 94.1875 34.6289C95.1615 35.0273 95.8698 35.4922 96.3125 36.0234L96.4453 36.7539C96.6224 37.1966 96.888 37.418 97.2422 37.418C97.7292 37.5508 98.1276 37.6836 98.4375 37.8164C98.7917 37.9049 99.168 37.9935 99.5664 38.082C99.8763 38.4362 100.164 38.8568 100.43 39.3438C100.784 39.875 101.116 40.4062 101.426 40.9375C101.78 41.4245 102.046 41.9336 102.223 42.4648C102.444 42.9518 102.555 43.4609 102.555 43.9922C102.599 44.5234 102.51 45.0768 102.289 45.6523L102.355 46.3164C102.577 46.7148 102.621 47.2682 102.488 47.9766C102.444 48.2865 102.422 48.6185 102.422 48.9727C102.422 49.2826 102.466 49.6367 102.555 50.0352C103.352 50.6549 104.06 50.9648 104.68 50.9648C105.388 50.9648 106.03 50.8099 106.605 50.5C107.225 50.1458 107.801 49.7917 108.332 49.4375C108.686 49.1719 109.04 48.9505 109.395 48.7734C109.749 48.5521 110.103 48.4193 110.457 48.375C111.254 47.6224 111.962 46.9583 112.582 46.3828C113.246 45.8073 113.932 45.2318 114.641 44.6562C115.969 43.5938 117.253 42.4427 118.492 41.2031C119.732 39.9635 120.728 38.4141 121.48 36.5547C121.923 36.2891 122.388 36.1562 122.875 36.1562C123.362 36.1562 123.871 36.2669 124.402 36.4883C124.934 36.7096 125.443 36.931 125.93 37.1523C126.062 37.2409 126.173 37.3073 126.262 37.3516C126.395 37.3958 126.505 37.4401 126.594 37.4844C126.594 37.9271 126.771 38.3034 127.125 38.6133C127.302 38.7461 127.413 38.8346 127.457 38.8789C127.501 38.9232 127.568 38.9674 127.656 39.0117C128.32 39.3659 128.741 39.7201 128.918 40.0742C129.228 41.0924 129.781 41.8672 130.578 42.3984C130.49 42.8411 130.49 43.2617 130.578 43.6602C130.711 44.0143 130.866 44.3906 131.043 44.7891C131.087 44.9219 131.132 45.0547 131.176 45.1875C131.22 45.3203 131.286 45.4753 131.375 45.6523L130.113 45.5195L130.312 46.7812C130.401 47.401 130.335 48.0872 130.113 48.8398C129.936 49.5924 129.715 50.1901 129.449 50.6328C129.493 51.7839 129.516 52.6914 129.516 53.3555C129.56 53.9753 129.538 54.5729 129.449 55.1484C129.361 55.6797 129.228 56.1888 129.051 56.6758C128.918 57.1628 128.719 57.694 128.453 58.2695C128.63 61.1029 128.298 63.6927 127.457 66.0391C126.66 68.3411 125.819 70.5104 124.934 72.5469C124.845 72.7682 124.734 72.9896 124.602 73.2109C124.513 73.4323 124.424 73.6536 124.336 73.875C123.938 74.0078 123.583 74.1628 123.273 74.3398C122.964 74.4727 122.632 74.6276 122.277 74.8047ZM171.816 30.2461C172.126 30.6003 172.392 30.9766 172.613 31.375C172.835 31.7292 173.167 31.9948 173.609 32.1719C173.388 33.2786 173.322 34.3411 173.41 35.3594C173.499 36.3333 173.565 37.3958 173.609 38.5469C172.99 41.9115 171.617 44.612 169.492 46.6484C167.367 48.6406 164.91 50.013 162.121 50.7656C162.121 51.2083 161.988 51.5182 161.723 51.6953C160.837 51.8281 160.173 52.0495 159.73 52.3594C159.288 52.6693 158.867 53.0013 158.469 53.3555C158.115 53.7096 157.672 54.0638 157.141 54.418C156.654 54.7279 155.879 54.9714 154.816 55.1484C154.595 55.6354 154.285 55.9453 153.887 56.0781C153.533 56.2109 153.156 56.3216 152.758 56.4102C152.404 56.4544 152.049 56.5651 151.695 56.7422C151.341 56.875 151.076 57.2292 150.898 57.8047L147.113 61.3242C146.051 61.0586 145.121 60.9479 144.324 60.9922C143.527 60.9922 142.863 60.9479 142.332 60.8594C141.801 60.7708 141.38 60.5052 141.07 60.0625C140.805 59.6198 140.628 58.7786 140.539 57.5391C140.583 57.0964 140.738 56.8086 141.004 56.6758C141.314 56.4987 141.513 56.2331 141.602 55.8789C141.602 54.9049 141.734 54.1966 142 53.7539C142.31 53.2669 142.686 52.8685 143.129 52.5586C143.572 52.2487 144.036 51.9167 144.523 51.5625C145.01 51.1641 145.431 50.5664 145.785 49.7695C146.493 49.4596 147.268 48.9727 148.109 48.3086C148.995 47.6003 149.792 46.9141 150.5 46.25C151.607 45.6745 152.536 45.1654 153.289 44.7227C154.086 44.2799 154.816 43.8372 155.48 43.3945C156.145 42.9518 156.809 42.4648 157.473 41.9336C158.137 41.4023 158.934 40.7383 159.863 39.9414C159.642 39.3659 159.221 39.056 158.602 39.0117C158.026 38.9232 157.362 38.9232 156.609 39.0117C155.326 38.6133 154.064 38.3698 152.824 38.2812C151.629 38.1484 150.212 38.0378 148.574 37.9492C147.954 37.9935 147.49 38.0599 147.18 38.1484C146.914 38.1927 146.493 38.1706 145.918 38.082C145.652 38.3034 145.342 38.4805 144.988 38.6133C144.678 38.7461 144.324 38.8789 143.926 39.0117C143.572 39.1003 143.195 39.2109 142.797 39.3438C142.443 39.4323 142.111 39.5651 141.801 39.7422C140.915 39.5208 140.207 39.1003 139.676 38.4805C139.145 37.8607 138.503 37.3737 137.75 37.0195C137.661 36.7096 137.728 36.5104 137.949 36.4219C138.171 36.3333 138.237 36.0677 138.148 35.625C137.706 35.4036 137.484 35.2266 137.484 35.0938C137.529 34.9609 137.396 34.7839 137.086 34.5625C137.263 33.8542 137.507 33.2565 137.816 32.7695C138.171 32.2383 138.547 31.7513 138.945 31.3086C139.344 30.8216 139.742 30.3568 140.141 29.9141C140.539 29.4714 140.893 28.9622 141.203 28.3867C141.911 28.2096 142.509 27.944 142.996 27.5898C143.527 27.1914 144.036 26.7708 144.523 26.3281C146.914 26.0625 149.238 25.9961 151.496 26.1289C153.754 26.2174 155.99 26.4388 158.203 26.793C160.461 27.1471 162.697 27.6341 164.91 28.2539C167.168 28.8737 169.47 29.5378 171.816 30.2461ZM146.316 68.4297C146.228 69.0938 146.139 69.5807 146.051 69.8906C146.007 70.2005 145.984 70.4883 145.984 70.7539C145.984 71.0195 146.007 71.3516 146.051 71.75C146.139 72.1484 146.272 72.7682 146.449 73.6094L146.648 74.6719L145.719 74.8711C145.497 74.9154 145.121 75.1146 144.59 75.4688C144.103 75.8229 143.66 76.1107 143.262 76.332C142.642 76.6862 142.044 77.0625 141.469 77.4609C140.938 77.9036 140.384 78.125 139.809 78.125C139.145 77.7708 138.68 77.5052 138.414 77.3281C138.148 77.151 137.883 76.974 137.617 76.7969C137.396 76.3984 137.197 76 137.02 75.6016C136.842 75.2031 136.643 74.8047 136.422 74.4062C136.289 74.0964 136.201 73.8971 136.156 73.8086C136.112 73.7201 136.068 73.6536 136.023 73.6094C136.023 73.5651 135.979 73.543 135.891 73.543C135.846 73.4987 135.714 73.3659 135.492 73.1445L135.094 72.3477C135.049 71.9935 135.072 71.6615 135.16 71.3516C135.293 70.9974 135.404 70.6654 135.492 70.3555C135.536 70.2227 135.581 70.0677 135.625 69.8906C135.714 69.6693 135.758 69.5143 135.758 69.4258L135.359 68.7617L135.891 68.0312C136.156 67.5443 136.355 67.2122 136.488 67.0352C136.621 66.8581 136.798 66.6589 137.02 66.4375L137.617 65.9727C138.812 65.9284 139.786 65.8177 140.539 65.6406C141.292 65.7734 141.779 65.9284 142 66.1055C142.221 66.2383 142.443 66.3932 142.664 66.5703C143.151 66.9245 143.505 67.1016 143.727 67.1016H145.055L144.922 68.0977L146.316 68.4297Z" fill="#00BEC1"/>
<path d="M195.414 87.4142C196.195 86.6332 196.195 85.3668 195.414 84.5858L182.686 71.8579C181.905 71.0768 180.639 71.0768 179.858 71.8579C179.077 72.6389 179.077 73.9052 179.858 74.6863L191.172 86L179.858 97.3137C179.077 98.0948 179.077 99.3611 179.858 100.142C180.639 100.923 181.905 100.923 182.686 100.142L195.414 87.4142ZM0 88L194 88V84L0 84L0 88Z" fill="#00BEC1"/>
</svg>
