<svg width="64" height="45" viewBox="0 0 64 45" fill="none" xmlns="http://www.w3.org/2000/svg">
<path d="M41.0478 22.0794L27.7214 27.9816L27.7214 16.1772L41.0478 22.0794Z" stroke="black" stroke-width="4"/>
<path d="M3.92792 10.0784C4.1772 6.55008 6.9902 3.72937 10.5477 3.4472C26.7945 2.15854 38.4264 2.20893 54.4418 3.45125C58.0694 3.73264 60.9253 6.64397 61.1251 10.2605C61.6097 19.0343 61.626 25.8854 61.1652 34.1508C60.9621 37.7939 58.0302 40.6983 54.34 40.9001C47.8433 41.2553 38.8873 41.6589 31.7736 41.6589C28.6646 41.6589 18.4359 41.1871 10.8281 40.8127C7.11411 40.6299 4.14001 37.7621 3.88597 34.1383C3.30203 25.8085 3.30155 18.9438 3.92792 10.0784Z" stroke="black" stroke-width="5"/>
</svg>
